<svg width="13" height="10" viewBox="0 0 13 10" fill="none" xmlns="http://www.w3.org/2000/svg">
<path d="M12.9672 1.3125C12.5297 1.5 12.0298 1.625 11.5298 1.6875C12.0298 1.375 12.4672 0.875002 12.6547 0.312502C12.1547 0.625002 11.6548 0.812502 11.0298 0.937502C10.5924 0.437502 9.90494 0.125 9.2175 0.125C7.84262 0.125 6.71772 1.25 6.71772 2.625C6.71772 2.8125 6.71772 3 6.78022 3.1875C4.7179 3.0625 2.84307 2.0625 1.59318 0.562498C1.4057 0.937498 1.28071 1.375 1.28071 1.8125C1.28071 2.6875 1.71817 3.4375 2.40561 3.875C1.96815 3.875 1.59318 3.75 1.28071 3.5625C1.28071 4.75 2.15563 5.81249 3.28053 5.99999C3.09304 6.06249 2.84307 6.0625 2.59309 6.0625C2.40561 6.0625 2.28062 6.06249 2.09314 5.99999C2.40561 6.99999 3.34303 7.75 4.46793 7.75C3.59301 8.43749 2.5306 8.81249 1.34321 8.81249C1.15572 8.81249 0.968239 8.8125 0.718262 8.75C1.84316 9.4375 3.15554 9.875 4.59291 9.875C9.2175 9.875 11.7173 6.0625 11.7173 2.75V2.4375C12.2172 2.25 12.6547 1.8125 12.9672 1.3125Z" fill="#8253D8"/>
</svg>
