<svg width="38" height="32" viewBox="0 0 38 32" fill="none" xmlns="http://www.w3.org/2000/svg">
<path d="M35.4706 25.6142C36.4845 23.8528 37.0258 21.88 37.0462 19.8714C37.0666 17.8627 36.5656 15.8804 35.5877 14.1006C34.6098 12.3208 33.1853 10.7986 31.4408 9.66954C29.6964 8.54044 27.686 7.83934 25.5885 7.62857C24.9277 6.0946 23.9452 4.70517 22.7012 3.54531C21.4571 2.38545 19.9776 1.47954 18.3532 0.883038C16.7289 0.286533 14.9938 0.01197 13.2542 0.0761511C11.5145 0.140332 9.80695 0.541908 8.2359 1.2563C6.66486 1.9707 5.26339 2.98289 4.11728 4.23093C2.97116 5.47898 2.10449 6.93663 1.57031 8.51468C1.03613 10.0927 0.845666 11.758 1.01058 13.4086C1.1755 15.0592 1.69232 16.6603 2.52942 18.1141L1.47791 21.6197C1.38138 21.9412 1.37689 22.2815 1.46492 22.6052C1.55295 22.9289 1.73028 23.2243 1.97855 23.4608C2.22681 23.6973 2.53696 23.8662 2.87686 23.9501C3.21675 24.034 3.57402 24.0297 3.91162 23.9379L7.59261 22.9363C9.08128 23.7139 10.7178 24.201 12.4065 24.3691C13.0902 25.9575 14.1183 27.3905 15.4237 28.5743C16.729 29.7582 18.2822 30.6662 19.9814 31.2389C21.6807 31.8116 23.4877 32.0362 25.2844 31.8979C27.0811 31.7595 28.8268 31.2614 30.4074 30.4362L34.0884 31.4379C34.426 31.5297 34.7832 31.534 35.1231 31.4501C35.463 31.3662 35.7731 31.1973 36.0214 30.9609C36.2697 30.7244 36.447 30.429 36.5351 30.1053C36.6232 29.7816 36.6187 29.4414 36.5222 29.1199L35.4706 25.6142ZM7.72094 20.9888C7.62947 20.9888 7.53844 21.0009 7.4505 21.0249L3.37088 22.135L4.53646 18.2495C4.57328 18.1267 4.58336 17.998 4.56608 17.8713C4.54881 17.7446 4.50454 17.6226 4.43601 17.5128C3.09099 15.3529 2.62011 12.7997 3.11178 10.3326C3.60344 7.86544 5.02384 5.6541 7.10626 4.11376C9.18868 2.57342 11.7899 1.81003 14.4215 1.96694C17.053 2.12384 19.534 3.19023 21.3984 4.9659C23.2628 6.74156 24.3826 9.10434 24.5473 11.6106C24.7121 14.1169 23.9105 16.5942 22.2931 18.5775C20.6758 20.5607 18.3539 21.9135 15.7634 22.3817C13.1729 22.85 10.4921 22.4015 8.22418 21.1206C8.07193 21.0343 7.89808 20.9888 7.72094 20.9888ZM33.4635 25.7495L34.6293 29.635L30.5495 28.525C30.4205 28.4898 30.2854 28.4802 30.1524 28.4966C30.0193 28.5131 29.8913 28.5552 29.776 28.6205C28.5003 29.3407 27.083 29.8037 25.6118 29.9809C24.1406 30.1582 22.6468 30.0459 21.2231 29.651C19.7993 29.2562 18.4758 28.5871 17.3345 27.6854C16.1932 26.7836 15.2585 25.6683 14.5882 24.4085C16.4293 24.2948 18.2228 23.8031 19.8454 22.9669C21.4681 22.1308 22.8816 20.9701 23.9887 19.5645C25.0959 18.1589 25.8705 16.5418 26.2595 14.8242C26.6484 13.1066 26.6424 11.3291 26.2419 9.61392C27.954 9.91945 29.5635 10.6138 30.9339 11.638C32.3042 12.6622 33.3949 13.9861 34.1135 15.4973C34.8321 17.0086 35.1574 18.6626 35.0617 20.3191C34.966 21.9755 34.4523 23.5856 33.564 25.0127C33.4954 25.1225 33.4512 25.2445 33.4339 25.3712C33.4166 25.4979 33.4267 25.6266 33.4635 25.7495Z" fill="white"/>
</svg>
